<svg xmlns="http://www.w3.org/2000/svg" viewBox="0 0 250 250">
  
<g transform="matrix(1.25,0,0,1.25,0,0)"><g>
    <path d="M34.357,52.908c-2.2.5-3.014,3.968-1.679,7.669s5.494,3.586,6.334.61S37.714,52.145,34.357,52.908Z" style="fill: #ffffff"></path>
    <path d="M166.274,58.394c-2.152-1.327-4.493,1.32-5.279,3.142s-1.634,5.248.534,6.819,4.714-1.634,5.436-3.425S168.16,59.557,166.274,58.394Z" style="fill: #ffffff"></path>
    <path d="M69.738,28.19c-2.73-4.841-7.178-8.784-12.7-9.912a23.236,23.236,0,0,0-12.6,1.116c-4.871,1.828-9.955,3.572-13.66,7.228-4.24,4.185-6.166,10.2-6.936,16.1s-.5,11.907-1.117,17.833A117.553,117.553,0,0,1,19.27,76.612c1.834.4,5.528,1.594,5.528,1.594a77.539,77.539,0,0,1,14.245-3.348l.478-.4c-.159-.636-1.1-7.416-1.613-11.135-5.437,2.1-6.472-6.225-6.519-6.325-2.215-4.779,1.578-8.98,5.288-7.707-.026-.107-.026-.213-.053-.319a.346.346,0,0,0-.026-.16c5.1-5.528,11.485-10.055,18.789-11.959,4.753-1.239,12.036-1.8,16.53.558A16.216,16.216,0,0,0,69.738,28.19Z" style="fill: #ea981a"></path>
    <path d="M176.839,89.82C165.236,79.26,149.089,79.793,144.31,79c-7.734-2.658-16.878-1.677-23.121,3.667-5.184,4.437-7.82,11.16-10.152,17.646a518.666,518.666,0,0,0-18.816,65.909c.744,0,37.525.239,37.525.239,1.914,4.651,4.518,9.168,8.4,12.278s9.279,4.606,13.9,2.817c3.006-1.164,5.418-3.565,7.5-6.086a116.6,116.6,0,0,0,9.647-14.378C181.966,139.771,195.318,106.638,176.839,89.82Z" style="fill: #614cf3"></path>
    <path d="M83.185,89.262c8.372,25.3,20.7,77.229,20.7,77.229s-26.39.585-28.064.824Z" style="fill: #f3cfbd"></path>
    <path d="M73.166,113.154c-6.192,3.029-12.5,5.749-18.842,8.451-.614.262-.955.186-1.223-.505-.206-.534-.425-1.037-.611-1.568a53.381,53.381,0,0,0,11.056-6.113,3.658,3.658,0,0,0,1.222-1.249,1.912,1.912,0,0,0-2.259-2.684,12.1,12.1,0,0,0,2.259-2.126,2.082,2.082,0,0,0,.611-1.409,1.568,1.568,0,0,0-1.435-1.275,4.425,4.425,0,0,0-2.019.4c.8-.85,2.267-1.059,2.763-2.126.568-1.218-.77-2.631-2.1-2.684a6.238,6.238,0,0,0-3.641,1.515,5.357,5.357,0,0,0,1.94-1.993,1.877,1.877,0,0,0-.691-2.445,2.683,2.683,0,0,0-1.621-.027,82.337,82.337,0,0,0-13.022,3.721c-1.458-2.915-.475-.859-4.571-11.056,1.275-.691,18.178-6.856,19.506-7.388.336-.067.447-.11.612.239C65.739,92.666,69.525,102.9,73.166,113.154Z" style="fill: #bbbaf6"></path>
    <path d="M62.509,109.486a10.3,10.3,0,0,1-.983.638,1.87,1.87,0,0,1,.983-.638,12.1,12.1,0,0,0,2.259-2.126,2.082,2.082,0,0,0,.611-1.409,1.568,1.568,0,0,0-1.435-1.275,4.425,4.425,0,0,0-2.019.4c.8-.85,2.267-1.059,2.763-2.126.568-1.218-.77-2.631-2.1-2.684a6.238,6.238,0,0,0-3.641,1.515,5.357,5.357,0,0,0,1.94-1.993,1.877,1.877,0,0,0-.691-2.445,2.683,2.683,0,0,0-1.621-.027,82.337,82.337,0,0,0-13.022,3.721c-1.273-2.545-1.332-2.979-1.7-3.109a.97.97,0,0,0-.718.106,26.989,26.989,0,0,0-5.82,3.136,8.912,8.912,0,0,0-3.534,5.421c-.53,3.338,1.055,9.568,1.887,12.863l-2.18-3.322a13.726,13.726,0,0,1-1.727-1.834c-2-1.9-5.637-.954-7.548-2.923-1.623-1.672-1.115-4.572-2.5-6.431-1.7-2.287-5.532-2.15-7.069-4.545-1.466-2.283.01-5.544-1.355-7.893A2.357,2.357,0,0,0,12.919,92a25.163,25.163,0,0,0-1.994,8.611,45.5,45.5,0,0,0,2.1,17.433,88.014,88.014,0,0,0,3.721,9.089c6.546,14.4,13.434,28.9,23.865,40.768,2.661,3.027,6.086,6.118,10.125,5.9,3.885-.21,7.35-3.53,9.089-7.016,2.583-5.18,2.631-11.162,1.807-16.9a71.919,71.919,0,0,0-5-16.609c-1.785-4.41-3.694-8.8-5.714-13.1a52.194,52.194,0,0,0,12.624-6.724,3.622,3.622,0,0,0,1.222-1.249A1.918,1.918,0,0,0,62.509,109.486Z" style="fill: #f3cfbd"></path>
    <path d="M86.029,71.562c-.475-1.011-1.171-1.939-1.568-3-1.041-2.789.053-5.873,1.143-8.664A143.141,143.141,0,0,0,69.977,70.5c-3.269.4-6.564.8-9.833,1.2.053.665.078,1.356.106,2.02.108,2.542-.236,3.678-2.259,4.917a16.624,16.624,0,0,1-11.427,2.152c-4.221-.76-6.15-2.752-7.043-6.325l-14.8,3.455c-6.059-1.515-12.087-2.8-19.081-3.854a6.637,6.637,0,0,1,2.6,8.026c-.869,2.06-3.7,4.872,1.356,7.628a10.915,10.915,0,0,1,3.322,2.258c2,2.428.135,5.919,1.727,8.4,1.537,2.395,5.369,2.259,7.069,4.545,1.383,1.86.875,4.759,2.5,6.431,1.91,1.969,5.543,1.022,7.547,2.924.674.639.787,1.135,1.728,1.833s1.381.452,1.381.452a27.881,27.881,0,0,1-1.288-7.356c-.014-3.245.665-5.7,3.733-8.084a26.989,26.989,0,0,1,5.82-3.136c.9-.4.992.1,1.382.877-1.116-2.87-2.285-5.821-3.534-8.93,1.276-.691,18.178-6.856,19.506-7.388.336-.067.447-.11.612.239,4.638,9.836,8.424,20.065,12.065,30.323-6.192,3.03-12.5,5.75-18.842,8.452-.614.261-.955.186-1.223-.505-.206-.534-.425-1.037-.611-1.568-.531.212-1.036.4-1.568.611,2.02,4.3,3.929,8.692,5.714,13.1a71.912,71.912,0,0,1,5,16.61c.881,6.135.753,13.123-2.6,18.311l25.539-1.383c-3.986-36.143,2.627-44.114.239-52.567a35.473,35.473,0,0,0-3.031-6.99c1.323-1.1,2.364-3.2,1.968-4.809-.288-1.171-1.042-2.206-1.142-3.4-.255-3.029,3.677-5,3.853-8.026.113-1.94-1.353-3.588-1.754-5.5C83.758,80.934,88.718,77.29,86.029,71.562Z" style="fill: #4066b6"></path>
    <path d="M77.02,46.448a4.925,4.925,0,0,0-3.535-2.285h-.4a19.908,19.908,0,0,0-2.87-7.468,21.789,21.789,0,0,0-8.61-.824,34.75,34.75,0,0,0-6.192.983c-7.3,1.9-13.687,6.432-18.79,11.959a22.221,22.221,0,0,0-2.558.45c-2.869.939-4.68,4.972-2.013,8.825-.168-3.368.484-6.238,3.668-5.049,3.789,1.415,4.153,8.2,2.418,10.178.186,2.9.458,5.8.9,8.691.382,2.482.943,5.129,2.817,6.8,2.462,2.462,10.01,3.685,16.158-.08,2.755-1.687,2.44-2.793,1.913-10.338a16.621,16.621,0,0,0,10.232-6.537,17.772,17.772,0,0,0,2.791-6.591,4.366,4.366,0,0,0,3.481-1.01C78.368,52.413,78.465,48.651,77.02,46.448Z" style="fill: #f3cfbd"></path>
    <path d="M169,56.069a4.54,4.54,0,0,0-5.741-3.349c.027-.106.027-.213.054-.319,1.2-10.033-4-16.271-14.059-18.364-4.863-1.011-10.175-1.162-14.484,1.276a15.666,15.666,0,0,0-6.458,7.468c-2.724,6.292-2.765,16.433,1.462,22.43a16.7,16.7,0,0,0,10.949,6.67c-.358,7.525-.678,9.155,1.967,11.4a12.479,12.479,0,0,0,11,2.817c5.595-1.336,6.666-5.892,7.282-11.587.213-1.966.4-3.96.558-5.953l-.319-.239c-.106-.08-1.435-.85-1.01-4.81a13.9,13.9,0,0,1,1.807-3.535c.607-.834,1.16-1.714,2.153-1.993a2.984,2.984,0,0,1,3.455,2.711c.058.344.106.691.133,1.063A6.76,6.76,0,0,0,169,56.069Z" style="fill: #996957"></path>
    <path d="M129.89,147.655a77.108,77.108,0,0,0-2.668-7.713,2.692,2.692,0,0,0-1.595-1.727,9.707,9.707,0,0,1-4.571-9.727c.42-2.623.261-.072-7.016-13.554A6.584,6.584,0,0,1,113,111.745,2.289,2.289,0,0,1,115,109.433a2.986,2.986,0,0,1,1.94,1.063c3.129,3.116,4.518,7.6,7.467,10.869a47.878,47.878,0,0,1-2.152-10.152,14.659,14.659,0,0,1,.08-4.517c.573-2.709,3.05-3.34,4.278.053a54.559,54.559,0,0,1,2.339,10.577,3.6,3.6,0,0,1,3.269-1.276,3.526,3.526,0,0,1,2.737,2.233A2,2,0,0,1,137,116.635a3.079,3.079,0,0,1,2.366,1.488,7.776,7.776,0,0,1,.983,2.711,35.56,35.56,0,0,1,.611,4.039,7.2,7.2,0,0,1-.478,3.934,79.659,79.659,0,0,1,4.651,11.959Z" style="fill: #996957"></path>
    <path d="M54.085,88.943a2.019,2.019,0,0,0-1.834.425c-.027.027-.08.053-.106.08a2.427,2.427,0,0,0-.8,2.339,2.125,2.125,0,0,0,3.96.5C56.073,90.68,55.292,89.177,54.085,88.943ZM53.606,91.1Zm.319-.877c-.186-.054-.079-.027,0,0Z" style="fill: #000000"></path>
    <path d="M136.6,51.71a.682.682,0,0,0,.664-.664,6.824,6.824,0,0,0-.053-2.153,2.469,2.469,0,0,0-3.03-2.02,3.717,3.717,0,0,0-2.046,3.8.7.7,0,0,0,.824.478c.7-.3.365-.935.478-1.276-.1.511.388-1.916,1.558-1.826.341.026.717.293.94,1.188a5.646,5.646,0,0,1,0,1.808A.659.659,0,0,0,136.6,51.71Z" style="fill: #000000"></path>
    <path d="M145.612,53.119a.648.648,0,0,0,.8-.452,6.99,6.99,0,0,1,.585-1.7c.7-1.364,2.1-.5,2.292.817a9.512,9.512,0,0,1-.006,1.973.658.658,0,0,0,.664.665.68.68,0,0,0,.664-.665c.116-1.383.162-3.031-.93-4.066a2.286,2.286,0,0,0-3.614.239,7.858,7.858,0,0,0-.93,2.366A.683.683,0,0,0,145.612,53.119Z" style="fill: #000000"></path>
    <path d="M139.951,59.417a11.493,11.493,0,0,1-1.568-1.116,3.447,3.447,0,0,1-1.063-1.169c-.3-.795.85-1.331,1.382-1.7a8.79,8.79,0,0,0,3.535-5.315c.177-.8-1.09-1.17-1.276-.319A7.552,7.552,0,0,1,138.3,54.1a9.228,9.228,0,0,0-1.94,1.568,2.16,2.16,0,0,0,.133,2.657,10.122,10.122,0,0,0,2.79,2.233A.661.661,0,0,0,139.951,59.417Z" style="fill: #000000"></path>
    <path d="M144.788,64.918a.686.686,0,0,0,0-.93.646.646,0,0,0-.93,0,3.456,3.456,0,0,1-4.784.611.661.661,0,0,0-.664,1.143A4.758,4.758,0,0,0,144.788,64.918Z" style="fill: #000000"></path>
    <path d="M53.1,45.571c-2.17-1.49-4.564,1.143-4.172,4.066a.688.688,0,0,0,.664.665c.319-.054.7-.373.665-.718-.131-1.42.489-3.259,1.609-3.093,1.838.274,1.5,2.872,1.58,2.535a.686.686,0,0,0,.478.824.674.674,0,0,0,.824-.479A3.894,3.894,0,0,0,53.1,45.571Z" style="fill: #000000"></path>
    <path d="M63.014,47.671a.684.684,0,0,0,.824.478.738.738,0,0,0,.505-.851c-.226-1.132-.349-2.416.712-2.7,1.026-.276,1.441,1.323,1.441,2.384a.664.664,0,1,0,1.328,0c-.2-2.855-1.636-3.906-2.918-3.7C63.518,43.5,62.305,45.2,63.014,47.671Z" style="fill: #000000"></path>
    <path d="M61.446,50.275a9.917,9.917,0,0,1-2.1-4.066c-.281-.828-1.587-.481-1.3.345.692,2.014,1.278,3.668,2.9,5.05.531.453,1.509,1.167,1.276,2.02-.109.4-.534.66-.85.877-.457.312-.906.634-1.382.9a.661.661,0,0,0,.664,1.143,15.592,15.592,0,0,0,1.488-.983,3.776,3.776,0,0,0,1.17-1.17,2.684,2.684,0,0,0-.691-3.056C62.244,50.939,61.818,50.647,61.446,50.275Z" style="fill: #000000"></path>
    <path d="M61.393,61.012a4.105,4.105,0,0,1-4.039-.027c-.252-.147-.931-.558-.931-.85a.664.664,0,0,0-1.328-.027c-.054.8.66,1.387,1.249,1.807a5.4,5.4,0,0,0,5.713.239A.661.661,0,0,0,61.393,61.012Z" style="fill: #000000"></path>
    <path d="M193.794,103.825c-1.143-2.445-3.694-3.587-5.315-5.607-2.206-4.146,1.911-8.746.053-13.1-4.193-9.833-10.763-1.914-5.262-18.045,1.01-9.807-9.169-9.342-8.265-23.732,1.138-18.112-21.022-28.33-33.831-15.175a14.173,14.173,0,0,0-13.288,9.355c-.372,1.355-1.435,4.544-.452,5.607-4.411,11.029-.664,27.107,12.6,29.26-.08,1.621-.159,3.269-.186,4.89-12.464-2.418-23.6,6.113-27.426,17.673-4.7,1.409-9.488,2.737-13.713,5.289-.8-1.595-3.562-1.329-3.535.611a114.382,114.382,0,0,0-9.408-6.564c3.694-3.934-1.541-7.548-.239-11.72.425-1.7,1.248-3.262,1.674-4.943,1.953-7.7-5.448-8.478-.9-17.567.877-3.668-15.255,8.983-16.477,9.727L60.729,70.9c-.027-.718-.08-1.435-.133-2.153A17.1,17.1,0,0,0,73.459,55.776c7.122.133,6.7-11.8.132-12.411a20.557,20.557,0,0,0-1.913-5.474.686.686,0,0,0,.957-.612c.64-7.377-4.3-14.618-10.657-18.018-10.009-5.354-22.51-.133-30.961,6.139-9.647,8.77-7.708,22.921-8.93,34.708a103.949,103.949,0,0,1-3.268,15.653c-4.306-.956-8.638-1.727-13-2.418-.691-.186-1.169.877-.505,1.222,6.857,5.342-1.469,9.094,1.329,13.448,1.3,2.022,3.853,2.445,5.528,4.039-5.449,14.139.787,29,6.962,41.8,5.775,11.972,11.906,24.025,20.7,34.124,5.661,7.361,14.085,9.275,19.666.637,6.777-.319,69.974-2.046,69.762-1.674,6.724,17.248,22.551,22.5,33.618,5.209,10.535-16.457,20.7-34.1,23.361-53.71C193,117.831,197.2,109.725,193.794,103.825ZM73.857,44.853c4.438.957,4.943,9.382-.08,9.7A30.117,30.117,0,0,0,73.857,44.853Zm89.827,9.169a13.662,13.662,0,0,0,3.455.133,5.06,5.06,0,0,1,.9,5.634c-.638-2.285-3.8-3.561-5.528-1.621A27.327,27.327,0,0,0,163.684,54.022ZM141.36,72.6a20.133,20.133,0,0,0,17.885-7.681,5.249,5.249,0,0,0,.8,3.083,69.4,69.4,0,0,1-17.461,14.351C140.164,79.748,141.519,75.814,141.36,72.6Zm19.453-3.429c-.531,4.571-.265,9.7-2.949,13.66-3.482,4.2-10.206,3.455-14.165.4A69.6,69.6,0,0,0,160.813,69.17Zm.931-7.627c4.483-7.93,7.653,1.86,2.95,5.741a2.1,2.1,0,0,1-3.8-.505C160.143,65.016,160.864,63.1,161.744,61.543Zm-27.161,7.309c-11.542-7.406-9.913-31.2,4.385-34.443,2.551,7.521,15.866,17.407,23.467,19.374-1.117,4.81-2.878,9.845-6.8,13.1C149.84,71.688,141.066,73.011,134.583,68.852Zm-11,12.942a22.915,22.915,0,0,1,16.291-3.136,6.3,6.3,0,0,0,1.594,4.385A138.02,138.02,0,0,1,114.093,94.5C116.193,89.528,119.012,84.8,123.581,81.794ZM97.138,125.83c.917-7,.85-14.165.85-21.207,1.223-.479,1.355-1.967,1.143-3.083,3.88-2.392,8.318-3.694,12.677-5-5.449,14.59-10.073,29.5-14.139,44.541C95.357,132.793,96.064,134.018,97.138,125.83ZM95.33,102.656a2.437,2.437,0,0,0,1.329,1.86c.027,8.638-.026,17.381-1.568,25.912-2.79-11.508-5.527-23.015-8.956-34.336C91.981,99.871,94.666,102.213,95.33,102.656Zm-11-41.246c-3.056,7.335,1.834,8.319,1.807,14.4A19.929,19.929,0,0,1,84.62,80.89c-2.817,5.688,3.535,8.425-.026,12.73-2.9-1.754-5.927-3.322-8.956-4.783-1.515-6.219-2.87-12.385-4.2-18.6A151.307,151.307,0,0,1,84.328,61.41ZM82.016,99.626c.771,2.153,2.073,4.678-.027,6.565a54.616,54.616,0,0,1-5.953-15.707c2.631,1.3,5.236,2.684,7.761,4.2C82.654,96.065,81.591,97.766,82.016,99.626Zm.638,49.3c-3.482,1.275-6.272-2.605-8.372-4.837-5.74-7.5-7.84-17.009-10.072-25.991,1.382-.9,10.057-3.911,9.647-5.1-3.341-9.731-7.255-19.347-11.4-28.808,3.986,1.887,8.026,3.641,12.012,5.528,1.356,8.132,5.591,15.133,8.983,22.509C86.887,119.7,81.95,126.405,82.654,148.925Zm-18.5-39.891c1.595-1.142,2.976-3.933.4-4.81,2.365-1.913-.479-5.209-2.977-4.412.877-4.411-3.822-3.012-6.405-2.365a79.6,79.6,0,0,0-9.328,2.844c-1.355-3.3-2.6-6.671-3.96-9.966,6.166-2.445,12.464-4.678,18.683-7.043.027,0,.027.027.053.027,4.332,9.647,8.212,19.56,11.8,29.526-6.059,2.976-12.3,5.74-18.523,8.318a9.853,9.853,0,0,1-.505-1.223C56.264,118.389,70.083,113.127,64.157,109.034ZM53.925,79.748c-3.774,1.036-8.557,1.179-11.693-1.515A7.476,7.476,0,0,1,40.1,74.225a64.8,64.8,0,0,1-1.089-7.446C42.87,72.174,48.211,76.372,53.925,79.748ZM38.75,63.35a7.479,7.479,0,0,0,1.01-3.215,19.938,19.938,0,0,0,19.534,8.929c.239,4.385,1.647,8.451-3.721,10.072a52.254,52.254,0,0,1-8.983-6.192C43.573,70.255,40.106,67.177,38.75,63.35Zm.372,12.092c1.914,6.83,10.737,7.256,16.345,5.183,1.169.637,2.338,1.275,3.508,1.86-6.086,2.312-12.3,4.358-18.285,6.936-1.2.372,2.286,6.591,2.5,7.946-4.04,1.595-8.638,3.881-9.94,8.372-1.913-7.813-6.75-25.991-7.1-27.32A79.766,79.766,0,0,1,39.122,75.442Zm21.527,1.143a13.525,13.525,0,0,0,.159-4.385c3.163-.372,6.3-.771,9.435-1.169,1.222,5.687,2.471,11.374,3.8,17.035-5.74-2.711-11.534-5.156-17.062-8.132C58.523,79.216,60.116,78.285,60.649,76.585ZM72,42.435C79.8,72.213,41.674,78.047,37.289,49.052c7.973-8.8,20.437-14.935,32.422-11.879A18.539,18.539,0,0,1,72,42.435Zm-34.23,13.5c.945,1.839,1.382,6.325-1.01,7.175-2.657.292-3.986-2.764-4.039-5.023C31.894,53.225,35.348,51.229,37.767,55.936Zm-6.059-1.967a5.266,5.266,0,0,0-.266.93c-.531-2.657,1.7-5.767,4.6-5.1a19.3,19.3,0,0,0,.611,2.79A3.34,3.34,0,0,0,31.708,53.969ZM53.473,18.517C62.8,18.57,71.2,27.1,71.332,36.4c-12.57-4.278-26.363,2.286-34.894,11.641-2.9-3.508-2.872-9.6-2.6-13.979C34.421,24.452,44.252,17.906,53.473,18.517ZM21.5,70.632c5.023-16.105-2.631-40.369,16.955-48.262C33.382,26.7,31.56,33.7,32.611,40.176c.45,2.769.558,5.9,2.339,8.212-4.784.319-6.219,6.591-3.535,9.993.08,3.082,2.5,6.909,5.98,5.926.5,3.269.558,6.7,1.329,9.939-.533.055-5.11.364-13.634,3.136-1.621-.558-3.348-.85-5.022-1.275C20.626,74.3,21.077,72.466,21.5,70.632ZM11.165,89.793C2.2,85.47,13.556,82.485,7.869,75.15c5.714.877,11.348,2.206,16.956,3.508,3.082,12.3,6.856,24.476,9.142,36.994-3.322-4.837-7.176-1.914-9.754-5.448-1.009-2.6-.877-6.113-3.986-7.282C9.889,100.052,18.905,93.526,11.165,89.793Zm41.05,83.1c-5.387,1.4-10.659-4.185-14.661-9.535A162.539,162.539,0,0,1,21.8,136.726c-6.465-13.31-13.979-28.409-8.85-43.4.851,2.365-.311,5.134,1.116,7.361,1.552,2.422,4.757,2.366,6.751,4.2,1.993,2.126.956,6.166,3.88,7.654,2.02,1.2,4.7.638,6.564,2.126.93.957,1.674,2.259,3.109,2.578,3.437,15.774,5.458,25.58,10.179,41.8a.661.661,0,0,0,1.276-.345c-3.995-13.763-8.82-33.312-11-47.359-1.621-7.414,2.365-10.2,8.664-12.7.638.558.93,3.216,2.126,3.136A76.647,76.647,0,0,1,57.54,98.3c3.268-1.223,3.64,1.328,1.116,2.923a75.412,75.412,0,0,1-7.229,3.508c-.8.239-.505,1.541.346,1.3,2.551-1.063,5.049-2.285,7.467-3.588,1.3-.93,3.455-2.285,4.625-.584.877,1.568-1.7,1.887-2.445,2.79-2.578,1.356-5.147,2.7-7.761,3.987-.768.377-.109,1.536.665,1.142,2.595-1.32,5.209-2.657,7.813-4.013,4.146-1.435,2.073,1.994,0,3.19-1.143,1.169-8.4,3.109-7.521,4.358.665,1.09,5.634-2.153,6.937-2.472.877-.345,1.9-1.362,2.524,0,.545,1.191-.854,1.962-1.674,2.525a53.487,53.487,0,0,1-9.514,5.262c-.8.585-3.056.5-2.684,1.887,5.717,13.585,14.781,29.361,9.589,44.188C58.515,168.354,55.657,172,52.215,172.89Zm8.088-5.575c6.937-15.573-2.338-32.422-8.5-46.773.106-.054.213-.08.319-.133.452,1.621,1.329,2.524,3,1.568,2.631-1.063,5.262-2.206,7.867-3.349,2.126,9.142,7.76,32.476,19.666,31.679.159,5.315.584,10.6,1.143,15.892C70.876,166.68,66.677,166.947,60.3,167.315Zm24.8-39.97c1.355-6.8,1.382-13.9-2.472-19.958,4.89-4.306-1.807-7.442,1.94-11.508,4.005,13.081,6.936,25.96,9.807,37.579-1.621,5.9-4.97,11.719-10.418,14.829A139.1,139.1,0,0,1,85.1,127.345Zm.079,39.013c-.611-5.5-1.036-11.029-1.195-16.583,5.394-2.844,9.062-8.185,10.975-13.846.638,2.658,7.814,30.243,7.814,30.3C100.646,166.279,87.331,166.305,85.178,166.358Zm21.872-.77a142.049,142.049,0,0,0,5.13-29.818,35.954,35.954,0,0,1,3.986-15.6c1.329,2.471,3.056,4.7,4.332,7.175-.452,3.056-.213,6.325,1.807,8.85.957,1.541,2.684,2.285,3.96,3.455a51.25,51.25,0,0,1,2.87,7.84c-.824.478-2.472.372-2.711,1.435.372,5.607.744,11.268,2.5,16.663C128.609,165.569,131.237,165.588,107.05,165.588Zm15.973-44.834c.292.372.583.746.93,1.116a.672.672,0,0,0,1.116-.637,46.533,46.533,0,0,1-1.621-6.458c-.434-2.63-.957-5.422-.4-8.106,3.185-6.975,5.9,13.9,5.9,14.723-3,.478-6.405,2.578-7.627,4.571-1.7-3.216-8.026-11.587-7.574-14.7C116.113,106.51,121.348,119.239,123.023,120.754Zm-2.95-7.2c.505-.824,1.01-1.621,1.488-2.471a52.879,52.879,0,0,0,1.222,7.042C121.853,116.608,121,115.04,120.073,113.552Zm12.384,8.292a4.466,4.466,0,0,0-2.179-.558c-.133-1.249-.319-2.472-.532-3.694.665-.479,1.462-1.17,2.419-.877,1.284.082,2.573,1.732,2.711,2.976.319,2.873-.127,10.891-2.738,8.186C133.679,126.282,134.759,123.225,132.457,121.844Zm-.159,3.375a10.656,10.656,0,0,1-2.977,3.508.654.654,0,0,0,.133,1.036c1.727,1.064,2.117,3.346,2.418,5.183a.7.7,0,0,0,.824.478c1.409-.744-.824-5.528-1.834-6.272.107-.106.213-.186.319-.292a2.2,2.2,0,0,0,3.349.239,3.5,3.5,0,0,0,5.847.9,73.092,73.092,0,0,1,4.145,10.816,130.318,130.318,0,0,1-14.111,6.192c-1.037-2.976-1.622-6.511-3.694-8.929a8.97,8.97,0,0,1-4.97-9.647,5.83,5.83,0,0,1,2.046-3.349C125.707,123.651,133.361,120.143,132.3,125.219Zm3.561-7.362c4.066-3,5.049,7.814,4.358,10.126-1.143,2.5-3.933,2.551-4.784-.186C136.774,123.971,136.35,118.841,135.859,117.857Zm49.192-.611c-2.149,17.448-9.97,33.623-19.268,48.262-3.671,5.78-7.494,12.6-14.032,15.494-8.876,3.056-16.889-4.63-20.224-12.225-2.674-6.091-3.322-12.81-3.747-19.4a135.8,135.8,0,0,0,20.144-8.849,105.855,105.855,0,0,1,8.123,25.42c.267,1.437,1.485,1.971,1.263-.506-.411-4.582-4.582-16.915-5-17.872.957-.877,14.059-26.336,9.063-22.563a109.788,109.788,0,0,1-9.647,21.022c-.9-2.286-1.887-4.545-2.95-6.75-.877-.931-2.153.691-3.083.93a87.46,87.46,0,0,0-4.438-11.4c1.408-3.641-.372-16.265-6.325-11.906a4.089,4.089,0,0,0-5.475-.851c-.824-3.88-.93-8.5-3.588-11.64-1.7-1.515-3.853.159-4.146,2.073-.106,2.206-1.355,3.986-2.5,5.82-1.541-2.711-5.581-5.581-6.856-1.036-.319,2.79,1.833,5.1,2.976,7.494-3.907,6.485-4.29,13.988-4.916,21.34a140.276,140.276,0,0,1-4.784,25.487h-1.329c-2.232-7.229-4.172-14.537-6.033-21.872a472.835,472.835,0,0,1,15.1-47.677c10.019-3.11,19.931-6.83,29.02-12.092,4.944,4.3,14.537,4.624,17.54-2.073C176.706,85.382,187.184,99.927,185.051,117.246Z" style="fill: #000000"></path>
    <path d="M130.039,54.261a14.9,14.9,0,0,1,3.773.771.674.674,0,0,0,.346-1.3,15.828,15.828,0,0,0-4.146-.8.658.658,0,0,0-.664.664A.737.737,0,0,0,130.039,54.261Z" style="fill: #4066b6"></path>
    <path d="M145.267,56.892a20.743,20.743,0,0,1,4.863.452.673.673,0,1,0,.345-1.3,21.637,21.637,0,0,0-5.235-.505C144.415,55.57,144.416,56.913,145.267,56.892Z" style="fill: #4066b6"></path>
    <path d="M49.62,54.527a53.155,53.155,0,0,1,5.262-.771.671.671,0,0,0,.664-.664.66.66,0,0,0-.664-.664,53.835,53.835,0,0,0-5.608.823.7.7,0,0,0-.478.824A.733.733,0,0,0,49.62,54.527Z" style="fill: #4066b6"></path>
    <path d="M66.735,51.657c1.2-.344,2.368-.681,3.561-1.037a.684.684,0,0,0,.478-.823.7.7,0,0,0-.824-.479c-1.2.346-2.368.681-3.561,1.037A.674.674,0,0,0,66.735,51.657Z" style="fill: #4066b6"></path>
  </g></g></svg>